<svg width="17" height="17" viewBox="0 0 17 17" fill="none" xmlns="http://www.w3.org/2000/svg">
<path d="M16.696 8.23124C16.696 9.36204 16.4802 10.4195 16.0486 11.4035C15.617 12.3876 15.0301 13.2422 14.2877 13.9673C13.5453 14.6923 12.6778 15.2664 11.6851 15.6894C10.6924 16.1037 9.63068 16.3109 8.49988 16.3109C7.36907 16.3109 6.30733 16.1037 5.31464 15.6894C4.32195 15.2664 3.45442 14.6923 2.71206 13.9673C1.9697 13.2422 1.38272 12.3876 0.951117 11.4035C0.519513 10.4195 0.303711 9.36204 0.303711 8.23124C0.303711 7.10044 0.519513 6.04732 0.951117 5.07189C1.38272 4.08783 1.9697 3.23326 2.71206 2.50816C3.45442 1.78307 4.32195 1.21335 5.31464 0.799011C6.30733 0.376039 7.36907 0.164551 8.49988 0.164551C9.63068 0.164551 10.6924 0.376039 11.6851 0.799011C12.6778 1.21335 13.5453 1.78307 14.2877 2.50816C15.0301 3.23326 15.617 4.08783 16.0486 5.07189C16.4802 6.04732 16.696 7.10044 16.696 8.23124ZM14.7538 8.23124C14.7538 7.34213 14.5941 6.51345 14.2747 5.74519C13.964 4.96831 13.5281 4.29501 12.967 3.72529C12.4059 3.15557 11.7412 2.7067 10.973 2.37868C10.2133 2.05067 9.38898 1.88665 8.49988 1.88665C7.60214 1.88665 6.77346 2.05067 6.01384 2.37868C5.25421 2.7067 4.59386 3.15557 4.03277 3.72529C3.47169 4.29501 3.03145 4.96831 2.71206 5.74519C2.40131 6.51345 2.24593 7.34213 2.24593 8.23124C2.24593 9.12898 2.40131 9.96628 2.71206 10.7432C3.03145 11.5114 3.47169 12.1804 4.03277 12.7501C4.59386 13.3199 5.25421 13.7687 6.01384 14.0967C6.77346 14.4248 7.60214 14.5888 8.49988 14.5888C9.38898 14.5888 10.2133 14.4248 10.973 14.0967C11.7412 13.7687 12.4059 13.3199 12.967 12.7501C13.5281 12.1804 13.964 11.5114 14.2747 10.7432C14.5941 9.96628 14.7538 9.12898 14.7538 8.23124ZM13.0317 7.70036L9.48394 8.42546L11.9441 11.5719L10.5198 12.5559L8.49988 9.12466L6.45407 12.5559L5.02978 11.5719L7.48992 8.42546L3.91624 7.70036L4.49891 6.08185L7.89131 7.36371L7.59351 3.42748H9.38035L9.08254 7.36371L12.4879 6.08185L13.0317 7.70036Z" fill="white"/>
</svg>
